<?xml version="1.0" encoding="UTF-8"?>
<svg id="Layer_2" data-name="Layer 2" xmlns="http://www.w3.org/2000/svg" viewBox="0 0 405.59 158.57">
  <defs>
    <style>
      .cls-1 {
        stroke-width: 2px;
      }

      .cls-1, .cls-2, .cls-3, .cls-4, .cls-5, .cls-6, .cls-7, .cls-8 {
        stroke: #000;
        stroke-miterlimit: 10;
      }

      .cls-1, .cls-2, .cls-3, .cls-4, .cls-5, .cls-7 {
        fill-rule: evenodd;
      }

      .cls-1, .cls-2, .cls-4, .cls-5, .cls-7 {
        fill: none;
      }

      .cls-2 {
        stroke-width: 1.96px;
      }

      .cls-3 {
        fill: #f2e3b5;
      }

      .cls-3, .cls-4, .cls-5, .cls-6, .cls-7, .cls-8 {
        stroke-linecap: round;
      }

      .cls-3, .cls-6 {
        stroke-width: 3.26px;
      }

      .cls-4 {
        stroke-dasharray: 0 0 5 10;
        stroke-width: 5px;
      }

      .cls-5 {
        stroke-width: 3px;
      }

      .cls-7 {
        stroke-width: 6.53px;
      }

      .cls-8 {
        fill: #f0c610;
        stroke-width: 3.09px;
      }
    </style>
  </defs>
  <g id="Layer_1-2" data-name="Layer 1">
    <g>
      <path class="cls-4" d="m329.22,81.67c-1.99,1.51-6.8,4.82-8.95,8.73-5.06,9.24-.79,16.74-2,26-1.76,13.46-12.82,26.54-25.5,31.5-14.91,5.84-31.48.25-38-2-4.13-1.42-30.8-10.61-39-35-1.72-5.1-5.2-15.46,0-24,6.67-10.96,27.7-15.44,40.5-7.5,8.21,5.09,9.16,16.14,8,26-.31,2.63-.92,4.93-1.89,7.05-4.61,10.08-14.05,15.15-18.61,17.45-47.91,24.28-49.73,26.74-59.28,26.08-10.71-.74-30.25-5.32-35-18-4.07-10.86,6.59-17.29,2-32-3.71-11.89-14.56-20.15-17-22-2.35-1.79-4.03-2.75-10-6-27.7-15.06-29.83-15.1-33-19-7.03-8.65-7.59-22.03-4-32C93.64,9.9,112.9.16,129.5,2.98c15.31,2.6,23.7,15.09,27,20,3.03,4.51,10.05,14.96,8,28-1.47,9.37-6.89,15.36-12,21-12.38,13.68-26.98,18.92-33,21-8.98,3.11-27.59,9.53-47,3-13.08-4.4-18.65-12.16-37-17-4-1.05-9.76-2.27-17-2-6.76.26-12.27,1.72-16,3"/>
      <g>
        <g>
          <ellipse class="cls-8" cx="362.37" cy="68.9" rx="33.17" ry="16.75" transform="translate(-5.61 94.37) rotate(-14.72)"/>
          <path class="cls-7" d="m370.68,52.18c-1.45,2.48-1.08,4.01-1.12,5.26-.05,1.51.35,2.73,1.14,5.18.6,1.87.92,2.82,1.76,3.8,1.08,1.26,2.36,1.96,3.82,2.76.65.36,2.55,1.36,5.48,2.25,1.65.5,2.49-.08,5.47.24"/>
          <path class="cls-7" d="m344.18,59.53c-1.25,2.88-2.44,4.65-2.36,6.15.1,1.81.62,3.31,1.66,6.31.8,2.28,1.21,3.45,2.17,4.68,1.23,1.58,2.61,2.51,4.18,3.57.7.47,2.75,1.81,5.83,3.05,1.74.71,1.45.81,4.54,1.39"/>
          <path class="cls-7" d="m356.94,54.15c-1.25,2.88-.73,4.75-.65,6.25.1,1.81.62,3.31,1.66,6.31.8,2.28,1.21,3.45,2.17,4.68,1.23,1.58,2.61,2.51,4.18,3.57.7.47,2.75,1.81,5.83,3.05,1.74.71,2.99,1.08,6.08,1.66"/>
          <ellipse class="cls-6" cx="386.36" cy="59.26" rx="11.58" ry="13.47" transform="translate(106.45 332.09) rotate(-52.99)"/>
        </g>
        <path class="cls-5" d="m391.03,49.49c1.42-1.91,2.88-2.8,3.92-3.26,2.56-1.14,3.35-1.01,5.88-1.31,1.39-.16,2.12-.29,3.26-.65"/>
        <path class="cls-5" d="m387.12,48.33c.64-1.48,1.39-2.56,1.96-3.26.52-.65,1.05-1.31,1.96-1.96.88-.62,1.7-.95,2.61-1.31.77-.3,1.3-.45,1.96-.65,1.55-.47,1.81-.54,3.92-1.31"/>
        <path class="cls-3" d="m372.23,52.46c.32-2.17.76-7.4-2.15-12.21-1.25-2.07-2.79-3.51-3.36-4.05-1-.93-3.23-2.95-6.69-4.12-2.47-.83-5.86-1.98-9.34-.34-4.29,2.02-5.37,6.72-5.41,6.92-.71,3.35.67,6.32,2.46,10.17.59,1.27,1.1,2.15,1.97,3.63,2.03,3.47,3.94,6.26,5.44,8.32"/>
        <path class="cls-3" d="m361.66,60.74c-5.68,3.17-8.51,4.75-11.75,5.22-6.82.99-12.24-1.57-14.36-2.61-1.38-.67-5.03-2.61-8.49-6.53-2.79-3.16-7.44-8.44-5.88-13.71,1.15-3.9,5.13-5.84,6.53-6.53,3.57-1.75,6.92-1.51,9.79-1.31,3.11.22,5.27.92,8.49,1.96,2.39.77,6.09,1.99,10.44,4.57,3.73,2.21,6.11,4.33,7.83,5.88,3.55,3.19,5.32,4.78,5.22,6.53-.04.68-.36,2.36-7.83,6.53Z"/>
        <path class="cls-2" d="m367.53,55.51c-7.86-4.23-14.8-5.46-18.93-5.88-4.09-.41-9.12-.86-15.01,1.31-3.22,1.18-5.63,2.75-7.18,3.92"/>
        <path class="cls-2" d="m335.55,36.58c-.85,3.16-.32,5.48,0,6.53.51,1.64,1.4,3.04,1.96,3.92.72,1.12,1.42,2,1.96,2.61"/>
      </g>
      <path class="cls-1" d="m356.73,32.33c-.85,3.16-.32,5.48,0,6.53.51,1.64,1.4,3.04,1.96,3.92"/>
    </g>
  </g>
</svg>